<?xml version="1.0" encoding="utf-8"?>
<!-- Generator: Adobe Illustrator 16.0.0, SVG Export Plug-In . SVG Version: 6.00 Build 0)  -->
<!DOCTYPE svg PUBLIC "-//W3C//DTD SVG 1.1//EN" "http://www.w3.org/Graphics/SVG/1.1/DTD/svg11.dtd">
<svg version="1.1" id="Layer_1" xmlns="http://www.w3.org/2000/svg" xmlns:xlink="http://www.w3.org/1999/xlink" x="0px" y="0px"
	 width="512px" height="512px" viewBox="0 0 512 512" enable-background="new 0 0 512 512" xml:space="preserve">
<g id="Symbol_2_">
	<g>
		<path fill="#278ACA" d="M259.868,229.479c52.849,0,95.695-44.243,95.695-98.83s-42.84-98.833-95.695-98.833
			c-52.849,0-95.695,44.247-95.695,98.833S207.019,229.479,259.868,229.479z M353.039,202.414
			c10.759,5.271,22.779,8.238,35.476,8.238c45.924,0,83.147-38.634,83.147-86.283c0-47.655-37.224-86.286-83.147-86.286
			c-16.489,0-31.845,5.005-44.764,13.59c20.836,20.491,33.782,49.001,33.782,80.539
			C377.533,158.745,368.354,183.131,353.039,202.414z M128.545,210.652c12.757,0,24.845-2.966,35.671-8.238
			c-15.406-19.283-24.629-43.669-24.629-70.202c0-31.537,13.01-60.047,33.97-80.539c-12.993-8.585-28.432-13.59-45.006-13.59
			c-46.17,0-83.597,38.638-83.597,86.286C44.949,172.018,82.369,210.652,128.545,210.652z M98.355,242.051
			c-31.274,0-47.338-25.125-47.338-25.125c-25.854,0-37.453,21.096-37.453,47.111v100.501c0,22.463,39.569,41.638,87.39,53.22
			V282.889c0-24.123,18.025-43.983,41.257-46.747C129.366,237.461,106.795,242.051,98.355,242.051z M343.016,251.443
			c0,0-25.561,25.101-57,25.101c-9.908,0-17.252-15.692-27.714-15.692c-16.58,0-20.542,15.692-34.517,15.692
			c-21.936,0-53.335-25.101-53.335-25.101c-25.996,0-47.068,21.058-47.068,47.051v138.075c0,54.867,266.698,56.743,266.698,0
			V298.494C390.08,272.508,369.008,251.443,343.016,251.443z M328.896,411.454c-30.035,5.872-113.612,6.102-144.325,0
			c-10.85-2.167-17.259-4.759-17.259-12.547c0-7.789,5.238-12.494,17.259-9.416c23.319,5.98,100.055,5.649,144.325,0
			c18.372-2.335,19.587,1.66,20.397,9.416C350.19,407.607,341.308,409.024,328.896,411.454z M328.896,370.667
			c-30.035,5.879-113.612,6.095-144.325,0c-10.85-2.153-17.259-4.759-17.259-12.548s5.238-12.486,17.259-9.396
			c23.319,5.953,100.055,5.63,144.325,0c18.372-2.342,19.587,1.647,20.397,9.396C350.19,366.819,341.308,368.23,328.896,370.667z
			 M462.246,216.926c0,0-16.145,25.104-47.584,25.104c-8.491,0-31.183-4.596-44.088-5.916c23.347,2.764,41.469,22.597,41.469,46.7
			v134.748c48.077-11.568,87.853-30.717,87.853-53.166V263.99C499.902,237.994,488.245,216.926,462.246,216.926z"/>
	</g>
</g>
</svg>
